<?xml version="1.0" encoding="UTF-8"?><svg id="Layer_2" xmlns="http://www.w3.org/2000/svg" viewBox="0 0 108.16 56.68"><defs><style>.cls-1{fill:#00bf77;}.cls-2{fill:#fafafa;}.cls-3{fill:#ffc300;}.cls-4{fill:#97dcb2;}.cls-5{fill:#a8e1bf;}.cls-6{fill:#dbf1e2;}.cls-7{fill:#3dca82;}</style></defs><g id="Layer_1-2"><g><path class="cls-7" d="M83.87,28.34c0,15.63-12.71,28.34-28.34,28.34-13.63,0-25.03-9.66-27.71-22.5-.05-.18-.09-.37-.12-.55-.34-1.71-.51-3.48-.51-5.29,0-.29,0-.55,.04-.81,.04-.39,.23-.77,.51-1.05L53.84,.92l.43-.42c.33-.32,.77-.5,1.24-.5h.02c1.21,0,2.4,.08,3.56,.23,13.96,1.75,24.78,13.69,24.78,28.11Z"/><path class="cls-1" d="M56.69,1.14v.19c-.06,1.44-.22,2.84-.46,4.23-2.41,14.56-13.91,26.1-28.41,28.62-.05-.18-.09-.37-.12-.55-.34-1.71-.51-3.48-.51-5.29,0-.29,0-.55,.04-.81,.04-.39,.23-.77,.51-1.05L53.84,.92c.97,.02,1.92,.1,2.85,.22Z"/><path class="cls-4" d="M57.25,1.85c-.05,1.19-.18,2.35-.38,3.5-2.23,13.49-13.87,23.85-27.87,24.17h-.04c-.71,0-1.35-.43-1.63-1.09-.28-.66-.13-1.44,.39-1.95l1.69-1.65L54.24,.5c.52-.5,1.3-.65,1.96-.35,.67,.3,1.09,.97,1.05,1.7Z"/><path class="cls-5" d="M57.25,1.85c-.05,1.19-.18,2.35-.38,3.5-3.82,11.21-14.36,19.33-26.74,19.62h-.04c-.24,0-.47-.05-.68-.14L54.24,.5c.52-.5,1.3-.65,1.96-.35,.67,.3,1.09,.97,1.05,1.7Z"/><path class="cls-6" d="M57.25,1.85c.11,14.97-13.32,28.13-28.29,27.67,3.62-.23,7.18-1.08,10.47-2.54,10-4.3,16.99-14.3,17.83-25.13h0Z"/><g><path class="cls-2" d="M62.3,32.92c-.26,0-.51-.1-.7-.29l-7.99-7.99c-.19-.18-.29-.44-.29-.7s.1-.51,.29-.7l4-4c.19-.19,.44-.29,.7-.29s.52,.1,.7,.29c.39,.39,.39,1.02,0,1.41l-3.29,3.29,2.59,2.59,3.29-3.29c.19-.19,.44-.29,.7-.29s.52,.1,.7,.29c.39,.39,.39,1.02,0,1.41l-3.29,3.29,2.59,2.59,3.29-3.29c.19-.19,.44-.29,.7-.29s.51,.1,.7,.29c.39,.39,.39,1.02,0,1.41l-4,4c-.19,.19-.44,.29-.7,.29Z"/><path class="cls-2" d="M69.49,25.73c-.26,0-.51-.1-.7-.29l-7.99-7.99c-.19-.18-.29-.44-.29-.7s.1-.51,.29-.7l4-4c.19-.19,.44-.29,.7-.29s.52,.1,.7,.29c.39,.39,.39,1.02,0,1.41l-3.29,3.29,2.59,2.59,3.29-3.29c.19-.19,.44-.29,.7-.29s.52,.1,.7,.29c.39,.39,.39,1.02,0,1.41l-3.29,3.29,2.59,2.59,3.29-3.29c.19-.19,.44-.29,.7-.29s.51,.1,.7,.29c.19,.19,.29,.44,.29,.7s-.1,.52-.29,.7l-4,4c-.19,.19-.44,.29-.7,.29Z"/><path class="cls-2" d="M55.11,40.1c-.26,0-.51-.1-.7-.29l-7.99-7.99c-.19-.19-.29-.44-.29-.7s.1-.51,.29-.7l2-2c.72-.72,1.68-1.12,2.7-1.12s1.98,.4,2.7,1.12c1.23,1.23,1.47,3.14,.59,4.65l-.62,1.06h5.33c.27,0,.52,.1,.7,.29,.19,.19,.29,.43,.29,.7,0,.55-.45,1-.99,1h-5.59l2.3,2.3c.19,.19,.29,.44,.29,.7s-.1,.52-.29,.7c-.19,.19-.44,.29-.7,.29Zm-3.99-10.81c-.49,0-.95,.19-1.3,.53l-1.3,1.3,2.59,2.59,1.29-1.29c.71-.72,.71-1.88,0-2.59-.34-.35-.8-.54-1.29-.54Z"/><path class="cls-2" d="M47.92,47.3c-.26,0-.51-.1-.7-.29l-7.99-7.99c-.19-.19-.29-.44-.29-.7s.1-.51,.29-.7l4-3.99c.19-.19,.44-.29,.7-.29s.52,.1,.7,.29c.39,.39,.39,1.02,0,1.41l-3.29,3.29,2.59,2.59,3.29-3.29c.19-.19,.44-.29,.7-.29s.52,.1,.7,.29c.19,.19,.29,.44,.29,.7,0,.27-.1,.52-.29,.7l-3.29,3.29,3.29,3.29c.39,.39,.39,1.02,0,1.41-.19,.19-.44,.29-.7,.29Z"/></g><g><path class="cls-3" d="M24.77,12.67L13.1,3.83c-.89-.67-1.06-1.94-.39-2.83,.78-1.06,2.44-1.06,3.22,0l8.84,11.67h0Z"/><path class="cls-3" d="M16.9,29.29l-14.61,2c-1.1,.15-2.12-.62-2.27-1.73-.2-1.3,.98-2.47,2.27-2.27l14.61,2h0Z"/><path class="cls-3" d="M22.62,45.5l-7.51,8.75c-.73,.85-2.01,.95-2.86,.22-1.07-.88-.88-2.66,.33-3.31l10.05-5.65h0Z"/><path class="cls-3" d="M88.8,11.35l6.95-9.09c.68-.89,1.96-1.06,2.85-.38,1.12,.82,1.03,2.61-.14,3.33l-9.65,6.14h0Z"/><path class="cls-3" d="M92.23,29.29l13.61-2c1.1-.16,2.13,.6,2.29,1.71,.22,1.32-.98,2.51-2.29,2.29l-13.61-2h0Z"/><path class="cls-3" d="M88.43,47.3l5.73,2.04c1.1,.39,1.68,1.6,1.28,2.71-.53,1.65-2.93,1.89-3.79,.41l-3.23-5.16h0Z"/></g></g></g></svg>