<?xml version="1.0" encoding="UTF-8"?><svg id="Layer_2" xmlns="http://www.w3.org/2000/svg" viewBox="0 0 73.07 74.35"><defs><style>.cls-1{opacity:.1;}.cls-2{fill:#00c077;}.cls-3{fill:#fff;}.cls-4{fill:#ffcaae;}.cls-5{fill:#ff4600;}.cls-6{fill:#ff9459;}.cls-7{fill:#ff7005;}.cls-8{fill:#7ccd94;}.cls-9{fill:#2f76c0;}.cls-10{fill:#c13100;}.cls-11{fill:#3ccb83;}.cls-12{fill:#99d7ac;}.cls-13{fill:#473272;}.cls-14{fill:#4ca871;}.cls-15{fill:#2e2049;}.cls-15,.cls-16{opacity:.53;}.cls-16{fill:#c5e6ce;}</style></defs><g id="Layer_1-2"><g><path class="cls-13" d="M71.65,38.69c0,3.42-.48,6.72-1.38,9.85-.06,.21-.12,.42-.19,.63-1.48,4.82-3.95,9.2-7.18,12.91-.71,.82-1.46,1.6-2.24,2.35-4.32,4.14-9.67,7.2-15.64,8.76-2.88,.75-5.91,1.16-9.03,1.16-1.22,0-2.43-.06-3.61-.18-1.82-.18-3.59-.5-5.31-.95-5.89-1.52-11.19-4.5-15.49-8.54-.09-.08-.17-.16-.26-.24-1.71-1.64-3.25-3.44-4.61-5.39-2.08-2.99-3.72-6.31-4.81-9.88-.47-1.53-.84-3.11-1.1-4.73-.3-1.87-.46-3.79-.46-5.75,0-1.77,.13-3.51,.38-5.22,.82-5.63,2.96-10.82,6.09-15.27,1.53-2.18,3.3-4.18,5.27-5.96,4.44-4.02,9.9-6.93,15.94-8.31h0s.08-.02,.13-.03c.95-.21,1.9-.39,2.88-.52,1.62-.23,3.28-.34,4.96-.34s3.43,.12,5.1,.36c.94,.13,1.87,.31,2.78,.51h0c3.14,.71,6.13,1.83,8.9,3.31,2.35,1.26,4.54,2.77,6.54,4.5,2.2,1.91,4.17,4.08,5.85,6.47,3.13,4.45,5.27,9.65,6.09,15.27,.25,1.7,.38,3.45,.38,5.22Z"/><g><path class="cls-15" d="M16.26,27.55c.19,.13,.41,.2,.62,.2,.34,0,.67-.16,.88-.46h0c.35-.49,.23-1.16-.26-1.51-.49-.34-1.16-.23-1.5,.26h0c-.34,.49-.23,1.16,.26,1.5Z"/><path class="cls-15" d="M20.15,24.08c.26,0,.51-.09,.72-.28,.44-.4,.48-1.08,.08-1.52-.4-.44-1.08-.48-1.52-.08h0c-.44,.4-.48,1.08-.08,1.52,.21,.24,.51,.36,.8,.36Z"/><path class="cls-15" d="M50.94,23.83c.21,.19,.46,.28,.72,.28,.3,0,.59-.12,.8-.36,.4-.44,.36-1.13-.08-1.52-.44-.4-1.13-.36-1.52,.08-.4,.44-.36,1.13,.08,1.52Z"/><path class="cls-15" d="M58.4,40.47v.05c0,.6,.48,1.08,1.08,1.08s1.08-.48,1.08-1.08v-.06c0-.6-.49-1.08-1.08-1.08-.6,0-1.08,.49-1.08,1.08Z"/><path class="cls-15" d="M56.44,31.36c.18,.4,.57,.64,.99,.64,.15,0,.3-.03,.44-.1,.54-.24,.79-.88,.54-1.43-.24-.54-.88-.79-1.43-.54-.54,.24-.79,.88-.54,1.43h0Z"/><path class="cls-15" d="M54.96,27.75c.22,0,.44-.07,.64-.21,.48-.35,.59-1.03,.23-1.51-.35-.48-1.03-.59-1.51-.23-.48,.35-.59,1.03-.23,1.51,.21,.29,.54,.44,.87,.44Z"/><path class="cls-15" d="M57.9,35.81c.11,.51,.56,.85,1.05,.85,.07,0,.15,0,.23-.02,.58-.12,.95-.7,.83-1.28-.13-.58-.7-.95-1.28-.83-.58,.12-.95,.7-.83,1.28Z"/><path class="cls-15" d="M14.08,31.96c.14,.06,.28,.09,.42,.09,.42,0,.82-.25,.99-.66,.23-.55-.02-1.18-.57-1.41-.55-.23-1.18,.03-1.41,.57-.23,.55,.03,1.18,.57,1.41Z"/><path class="cls-15" d="M38.33,62.83c-.59,.06-1.02,.59-.96,1.19,.06,.55,.53,.97,1.07,.97,.04,0,.07,0,.11,0,.59-.06,1.02-.59,.96-1.19-.06-.59-.59-1.02-1.19-.96Z"/><path class="cls-15" d="M12.86,36.72c.07,.01,.14,.02,.21,.02,.51,0,.96-.36,1.06-.87,.12-.58-.26-1.15-.85-1.27-.58-.12-1.15,.26-1.27,.85-.12,.58,.26,1.15,.85,1.27Z"/><path class="cls-15" d="M42.91,61.86c-.57,.18-.88,.79-.69,1.36,.15,.46,.57,.75,1.03,.75,.11,0,.22-.02,.33-.05,.57-.18,.88-.79,.69-1.36-.18-.57-.79-.88-1.36-.69Z"/><path class="cls-15" d="M33.66,62.77c-.59-.07-1.13,.35-1.2,.94-.07,.59,.35,1.13,.94,1.2h0s.08,0,.13,0c.54,0,1-.4,1.07-.95,.07-.59-.35-1.13-.94-1.2Z"/><path class="cls-15" d="M29.04,61.81c-.57-.17-1.17,.15-1.35,.72s.15,1.17,.72,1.35c.11,.03,.21,.05,.32,.05,.46,0,.89-.3,1.03-.76,.17-.57-.15-1.17-.72-1.35Z"/><path class="cls-15" d="M47.19,59.95c-.52,.3-.69,.96-.39,1.48,.2,.35,.56,.54,.94,.54,.18,0,.37-.05,.54-.15,.52-.3,.69-.96,.39-1.48-.3-.52-.96-.69-1.48-.39Z"/><path class="cls-15" d="M50.48,16.08c0,3.89-1.53,7.41-4.01,10.02-2.64,2.77-6.37,4.49-10.5,4.49s-7.86-1.73-10.5-4.49c-2.49-2.6-4.01-6.13-4.01-10.02,0-5.08,2.61-9.56,6.57-12.15h0s.08-.02,.13-.03c.95-.21,1.9-.39,2.88-.52,1.62-.23,3.28-.34,4.96-.34s3.43,.12,5.1,.36c.94,.13,1.87,.31,2.78,.51h0c3.97,2.59,6.6,7.07,6.6,12.17Z"/><path class="cls-15" d="M29.07,44.27h-8.14v-1.37c0-1.17-.96-2.13-2.13-2.13h-2.83c.01-.07,.02-.14,.02-.22,0-.6-.49-1.08-1.08-1.08-.59,0-1.08,.48-1.08,1.08,0,.07,0,.15,.02,.22h-2.32c-1.17,0-2.13,.95-2.13,2.13v1.37H1.25c-.17,0-.33,.07-.45,.17,.26,1.61,.63,3.19,1.1,4.73,1.09,3.56,2.73,6.89,4.81,9.88,1.35,1.95,2.9,3.75,4.61,5.39,.09,.08,.17,.16,.26,.24H28.95c.12,0,.23-.1,.23-.23v-12.12h.03c.31-.07,.54-.34,.54-.66v-6.72c0-.37-.3-.67-.67-.67Zm-9.76,0H11.01v-1.37c0-.28,.23-.51,.51-.51h7.27c.28,0,.51,.23,.51,.51v1.37Z"/><path class="cls-15" d="M70.27,48.54c-.06,.21-.12,.42-.19,.63-1.48,4.82-3.95,9.2-7.18,12.91h-13.99v-3.98h-5.28v-14.13h25.31v4.57h1.32Z"/></g><path class="cls-4" d="M37.33,61.11c-.06-.57,.35-1.07,.92-1.13h0c.57-.06,1.07,.35,1.13,.92h0c.06,.57-.35,1.07-.92,1.13h0s-.07,0-.11,0h0c-.52,0-.97-.39-1.02-.92Zm-3.78,.86h0c-.56-.07-.97-.58-.9-1.14h0c.07-.56,.58-.97,1.14-.9h0c.56,.07,.97,.58,.9,1.14h0c-.06,.52-.51,.91-1.02,.91h0s-.08,0-.12,0Zm8.41-1.62c-.18-.54,.12-1.12,.66-1.3h0c.54-.18,1.12,.12,1.3,.66h0c.18,.54-.12,1.12-.66,1.3h0c-.11,.03-.21,.05-.32,.05h0c-.43,0-.84-.28-.98-.71Zm-13.19,.62c-.54-.17-.85-.74-.68-1.29h0c.17-.54,.74-.85,1.29-.68h0c.54,.17,.85,.74,.68,1.29h0c-.14,.44-.54,.73-.99,.73h0c-.1,0-.2-.01-.3-.05Zm-4.52-1.91c-.5-.28-.68-.9-.4-1.4h0c.28-.5,.9-.68,1.4-.4h0c.5,.27,.68,.9,.4,1.4h0c-.19,.34-.54,.53-.9,.53h0c-.17,0-.34-.04-.5-.13Zm22.07-.43c-.28-.49-.12-1.12,.38-1.41h0c.49-.29,1.12-.12,1.41,.38h0c.29,.49,.12,1.12-.38,1.41h0c-.16,.09-.34,.14-.52,.14h0c-.36,0-.7-.18-.89-.51Zm-26.09-2.41c-.43-.38-.46-1.03-.08-1.46h0c.38-.42,1.03-.46,1.46-.08h0c.42,.38,.46,1.03,.08,1.46h0c-.2,.23-.49,.34-.77,.34h0c-.24,0-.49-.09-.69-.26Zm30-.18c-.38-.42-.35-1.07,.08-1.46h0c.42-.38,1.07-.35,1.46,.08h0c.38,.42,.35,1.07-.08,1.46h0c-.2,.18-.44,.27-.69,.27h0c-.28,0-.56-.12-.77-.34Zm-33.28-3.49c-.33-.46-.22-1.11,.24-1.44h0c.46-.33,1.11-.22,1.44,.24h0c.33,.46,.22,1.11-.24,1.44h0c-.18,.13-.39,.19-.59,.19h0c-.32,0-.64-.15-.84-.43Zm36.58,.15c-.46-.34-.56-.98-.23-1.44h0c.34-.46,.98-.56,1.44-.23h0c.46,.33,.56,.98,.23,1.44h0c-.2,.28-.52,.42-.83,.42h0c-.21,0-.42-.06-.61-.2Zm-38.97-4.44c-.22-.52,.02-1.13,.55-1.35h0c.52-.22,1.13,.02,1.35,.55h0c.22,.52-.02,1.13-.55,1.35h0c-.13,.06-.27,.08-.4,.08h0c-.4,0-.78-.24-.95-.63Zm41.51,.49c-.52-.23-.75-.84-.52-1.36h0c.23-.52,.84-.75,1.36-.52h0c.52,.23,.75,.84,.52,1.36h0c-.17,.38-.55,.61-.94,.61h0c-.14,0-.28-.03-.42-.09Zm-42.95-5.17c-.11-.56,.25-1.1,.81-1.21h0c.56-.11,1.1,.25,1.21,.81h0c.11,.56-.25,1.1-.81,1.21h0c-.07,.01-.14,.02-.2,.02h0c-.48,0-.91-.34-1.01-.83Zm44.61,.78c-.56-.12-.91-.67-.8-1.22h0c.12-.56,.67-.91,1.22-.8h0c.56,.12,.91,.67,.8,1.22h0c-.1,.49-.53,.82-1.01,.82h0c-.07,0-.14,0-.21-.02Zm-45.09-5.65c0-.57,.46-1.03,1.03-1.03h0c.57,0,1.03,.46,1.03,1.03h0c0,.57-.46,1.03-1.03,1.03h0c-.57,0-1.03-.46-1.03-1.03Zm44.76-.02v-.03h0v-.02h0c0-.57,.46-1.03,1.03-1.03h0c.57,0,1.03,.46,1.03,1.03h0v.03h0v.03h0c0,.57-.46,1.03-1.03,1.03h0c-.57,0-1.03-.46-1.03-1.03Zm-43.48-3.63c-.56-.11-.92-.65-.81-1.21h0c.11-.56,.65-.92,1.21-.81h0c.56,.11,.92,.65,.81,1.21h0c-.1,.49-.53,.83-1.01,.83h0c-.07,0-.13,0-.2-.02Zm43-.87h0c-.12-.56,.23-1.1,.79-1.22h0c.56-.12,1.1,.23,1.22,.79h0c.12,.56-.24,1.1-.79,1.22h0c-.07,.02-.15,.02-.22,.02h0c-.48,0-.9-.33-1.01-.81Zm-41.83-3.68c-.52-.22-.77-.83-.55-1.35h0c.22-.52,.83-.77,1.35-.55h0c.52,.22,.77,.83,.55,1.35h0c-.17,.39-.55,.63-.95,.63h0c-.13,0-.27-.03-.4-.08Zm40.44-.57h0c-.23-.52,0-1.13,.52-1.36h0c.52-.23,1.13,0,1.36,.52h0c.23,.52,0,1.13-.52,1.36h0c-.14,.06-.28,.09-.42,.09h0c-.39,0-.77-.23-.94-.61Zm-2.25-3.87c-.34-.46-.23-1.1,.22-1.44h0c.46-.34,1.1-.23,1.44,.22h0c.34,.46,.24,1.1-.22,1.44h0c-.18,.13-.4,.2-.61,.2h0c-.32,0-.63-.15-.83-.42Zm-36.11,.23c-.46-.33-.58-.97-.25-1.44h0c.33-.46,.97-.57,1.44-.25h0c.46,.33,.58,.97,.25,1.44h0c-.2,.28-.52,.44-.84,.44h0c-.2,0-.41-.06-.59-.19Zm33.11-3.55c-.42-.38-.46-1.03-.08-1.45h0c.38-.42,1.03-.46,1.46-.08h0c.42,.38,.46,1.03,.08,1.46h0c-.2,.23-.48,.34-.77,.34h0c-.25,0-.49-.09-.69-.26Zm-30.17-.11c-.38-.42-.34-1.08,.08-1.46h0c.42-.38,1.07-.34,1.46,.08h0c.38,.42,.34,1.08-.08,1.46h0c-.2,.18-.44,.26-.69,.26h0c-.28,0-.56-.12-.77-.34Zm3.69-2.9c-.28-.5-.1-1.13,.4-1.4h0c.5-.28,1.13-.1,1.4,.4h0c.28,.5,.1,1.13-.4,1.4h0c-.16,.09-.33,.13-.5,.13h0c-.36,0-.71-.19-.9-.53Zm22.85,.38h0c-.49-.28-.66-.91-.38-1.41h0c.28-.49,.91-.66,1.41-.38h0c.49,.28,.66,.91,.38,1.41h0c-.19,.33-.54,.52-.89,.52h0c-.17,0-.35-.04-.51-.14Zm-18.62-2.41c-.17-.54,.14-1.12,.68-1.29h0c.54-.17,1.12,.14,1.29,.68h0c.17,.54-.14,1.12-.68,1.29h0c-.1,.03-.2,.05-.3,.05h0c-.44,0-.85-.28-.99-.73Zm14.53,.6c-.54-.17-.84-.76-.67-1.3h0c.17-.54,.76-.84,1.3-.67h0c.54,.18,.84,.76,.67,1.3h0c-.14,.44-.55,.71-.98,.71h0c-.1,0-.21-.02-.32-.05Zm-9.98-1.75c-.07-.56,.34-1.08,.9-1.15h0c.57-.07,1.08,.33,1.15,.9h0c.07,.56-.33,1.08-.9,1.15h0s-.08,0-.12,0h0c-.51,0-.96-.38-1.02-.91Zm5.6,.83h0c-.57-.06-.98-.56-.92-1.13h0c.06-.57,.56-.98,1.13-.92h0c.57,.06,.98,.56,.92,1.13h0c-.05,.53-.5,.93-1.02,.93h0s-.07,0-.11,0Z"/><g><path class="cls-3" d="M49.85,13.85c0,3.71-1.46,7.08-3.83,9.56-2.52,2.64-6.08,4.29-10.02,4.29s-7.5-1.65-10.02-4.29c-2.37-2.48-3.83-5.85-3.83-9.56,0-7.65,6.2-13.85,13.85-13.85s13.85,6.2,13.85,13.85Z"/><path class="cls-11" d="M47.64,13.85c0,3.12-1.22,5.95-3.22,8.03-.74,.78-1.59,1.45-2.52,2-1.73,1.02-3.75,1.61-5.9,1.61s-4.2-.59-5.93-1.62c-.92-.55-1.76-1.22-2.49-1.99-1.99-2.09-3.22-4.92-3.22-8.03,0-6.43,5.21-11.64,11.64-11.64s11.64,5.21,11.64,11.64Z"/><path class="cls-12" d="M29.18,5.79c-2.97,5.07-3.56,9.84-.78,15.15-4.38-4.2-3.68-11.3,.78-15.15h0Z"/><g><path class="cls-3" d="M43.54,22.76c-.23-.69-.81-1.21-1.53-1.36l-4.23-1.45v-.24c-.28,.2-.59,.35-.92,.44-.28,.08-.57,.12-.86,.12s-.58-.04-.86-.12c-.33-.1-.64-.25-.92-.44v.24l-4.23,1.45c-.72,.15-1.3,.67-1.53,1.36l-.55,1.64,8.09,2.41,8.09-2.41-.55-1.64Z"/><polygon class="cls-3" points="36 11.14 32.01 10.06 32.01 12.88 39.98 12.88 39.98 10.06 36 11.14"/><polygon class="cls-3" points="36 6.18 28.91 8.72 36 10.65 43.09 8.72 36 6.18"/><path class="cls-3" d="M39.98,13.04s.07-.55-.02-1.28h-7.94c-.09,.73-.02,1.28-.02,1.28-.56,.19-.89,.78-.74,1.36l.25,.98c.1,.38,.33,.7,.65,.92l1.65,2.35c.34,.51,.85,.89,1.45,1.06h0c.47,.14,.98,.14,1.45,0,.59-.17,1.1-.55,1.45-1.06l1.65-2.35c.32-.22,.55-.54,.65-.92l.25-.98c.15-.58-.17-1.17-.74-1.36Z"/><polygon class="cls-3" points="28.91 8.92 29.19 9 29.19 11.51 28.91 11.51 28.91 8.92"/><polygon class="cls-3" points="29.19 11.7 29.05 11.7 28.91 11.7 28.6 12.65 28.6 13.08 29.05 13.08 29.49 13.08 29.49 12.65 29.19 11.7"/></g></g><g><g><rect class="cls-9" x=".54" y="46.62" width="26.75" height="15.12" rx="1.56" ry="1.56" transform="translate(27.84 108.36) rotate(180)"/><rect class="cls-5" x=".54" y="46.62" width="26.75" height="15.12" rx="1.56" ry="1.56" transform="translate(27.84 108.36) rotate(180)"/></g><path class="cls-1" d="M1.2,46.62H26.64c.36,0,.65,.29,.65,.65v3.41l-13.25,2.61c-.08,.02-.17,.02-.25,0L.54,50.67v-3.41c0-.36,.29-.65,.65-.65Z"/><g><path class="cls-9" d="M.64,42.26h7.77v-1.3c0-1.12,.91-2.03,2.03-2.03h6.94c1.12,0,2.03,.91,2.03,2.03v1.3h7.77c.35,0,.64,.29,.64,.64v6.42c0,.31-.22,.57-.52,.63l-13.28,2.61c-.08,.02-.17,.02-.25,0L.52,49.95c-.3-.06-.52-.32-.52-.63v-6.42c0-.35,.29-.64,.64-.64Zm17.24-1.3c0-.26-.22-.49-.49-.49h-6.94c-.26,0-.49,.22-.49,.49v1.3h7.92v-1.3Z"/><path class="cls-7" d="M.64,42.26h7.77v-1.3c0-1.12,.91-2.03,2.03-2.03h6.94c1.12,0,2.03,.91,2.03,2.03v1.3h7.77c.35,0,.64,.29,.64,.64v6.42c0,.31-.22,.57-.52,.63l-13.28,2.61c-.08,.02-.17,.02-.25,0L.52,49.95c-.3-.06-.52-.32-.52-.63v-6.42c0-.35,.29-.64,.64-.64Zm17.24-1.3c0-.26-.22-.49-.49-.49h-6.94c-.26,0-.49,.22-.49,.49v1.3h7.92v-1.3Z"/></g><rect class="cls-10" x="11.3" y="50.81" width="5.23" height="3.37" rx="1.48" ry="1.48" transform="translate(27.84 104.99) rotate(180)"/><rect class="cls-6" x="12.67" y="52.7" width="2.69" height=".63" rx=".31" ry=".31"/><polygon class="cls-6" points="1.32 47.39 1.32 43.23 26.22 43.23 2.37 44.2 1.32 47.39"/></g><g><g><rect class="cls-2" x="49.93" y="46.34" width="23.14" height="12.92"/><path class="cls-8" d="M69.6,47.75h-16.2c0,1.14-.92,2.06-2.06,2.06v5.98c1.14,0,2.06,.92,2.06,2.06h16.2c0-1.14,.92-2.06,2.06-2.06v-5.98c-1.14,0-2.06-.92-2.06-2.06Zm-8.1,7.87c-1.56,0-2.82-1.26-2.82-2.82s1.26-2.82,2.82-2.82,2.82,1.26,2.82,2.82-1.26,2.82-2.82,2.82Zm7.92-1.91h-2.65v-1.66h2.65v1.66Zm-12.75,0h-2.65v-1.66h2.65v1.66Z"/></g><rect class="cls-14" x="49.93" y="46.34" width="20.13" height="10.21"/><g><rect class="cls-11" x="50.23" y="36.64" width="13.49" height="24.16" transform="translate(105.69 -8.25) rotate(90)"/><path class="cls-16" d="M65.43,43.45h-16.92c0,1.19-.96,2.15-2.15,2.15v6.24c1.19,0,2.15,.96,2.15,2.15h16.92c0-1.19,.96-2.15,2.15-2.15v-6.24c-1.19,0-2.15-.96-2.15-2.15Zm-8.46,8.22c-1.63,0-2.95-1.32-2.95-2.95s1.32-2.95,2.95-2.95,2.95,1.32,2.95,2.95-1.32,2.95-2.95,2.95Zm7.43-1.99h-1.09c-.46,0-.84-.38-.84-.84v-.06c0-.46,.38-.84,.84-.84h1.09c.46,0,.84,.38,.84,.84v.06c0,.46-.38,.84-.84,.84Zm-13.31,0h-1.09c-.46,0-.84-.38-.84-.84v-.06c0-.46,.38-.84,.84-.84h1.09c.46,0,.84,.38,.84,.84v.06c0,.46-.38,.84-.84,.84Z"/></g></g></g></g></svg>