<?xml version="1.0" encoding="UTF-8"?><svg id="Layer_2" xmlns="http://www.w3.org/2000/svg" viewBox="0 0 71.8 75.16"><defs><style>.cls-1{fill:#01aa6c;}.cls-2{fill:#00c077;}.cls-3{fill:#ebf6f1;}.cls-4{fill:#ed6f00;}.cls-5{fill:#fff;}.cls-6{fill:#ffb992;}.cls-7{fill:#ffca8f;}.cls-8{fill:#ff9300;}.cls-9{fill:#ff7005;}.cls-10{fill:#ff7900;}.cls-11{fill:#b1b1b1;}.cls-12{fill:#106e45;}.cls-13{fill:#2e2049;}.cls-14{fill:#5dcf8e;}.cls-15{fill:#473272;}.cls-16{opacity:.53;}</style></defs><g id="Layer_1-2"><g><path class="cls-15" d="M71.8,39.26c0,3.67-.55,7.22-1.58,10.55-1.47,4.77-3.9,9.13-7.07,12.82-.49,.58-1.01,1.14-1.54,1.68-.29,.29-.58,.58-.87,.87-.45,.44-.92,.86-1.4,1.27-1.8,1.55-3.75,2.93-5.84,4.1-.6,.34-1.22,.66-1.84,.97-2.12,1.04-4.35,1.87-6.67,2.48-2.9,.76-5.95,1.16-9.09,1.16h0c-1.23,0-2.44-.06-3.64-.18-1.83-.18-3.61-.5-5.35-.95-2.36-.61-4.63-1.45-6.78-2.51-.62-.3-1.24-.63-1.84-.97-2.08-1.17-4.04-2.55-5.84-4.11-.48-.41-.94-.83-1.4-1.27-.3-.28-.59-.57-.87-.87-.53-.54-1.04-1.1-1.54-1.68-.79-.92-1.54-1.88-2.23-2.88-2.1-3.01-3.74-6.36-4.84-9.94-1.03-3.34-1.58-6.88-1.58-10.55,0-1.78,.13-3.54,.38-5.25,.83-5.66,2.98-10.9,6.14-15.38,1.54-2.19,3.33-4.21,5.31-6,4.5-4.07,10.04-7.02,16.18-8.39,.95-.21,1.92-.39,2.9-.53,1.63-.23,3.3-.34,5-.34s3.46,.12,5.14,.37c4.2,.6,8.17,1.93,11.77,3.85,2.37,1.26,4.58,2.79,6.59,4.53,2.22,1.92,4.2,4.11,5.89,6.52,3.15,4.48,5.31,9.71,6.13,15.38,.25,1.72,.38,3.47,.38,5.25Z"/><g class="cls-16"><path class="cls-13" d="M45.98,9.54c0,5.27-4.17,9.54-9.44,9.54h-1.18c-1.47,0-2.86-.33-4.1-.92-.18-.09-.37-.18-.54-.28-2.92-1.63-4.89-4.75-4.89-8.33,0-1.89,.55-3.66,1.5-5.14,.23-.06,.45-.11,.68-.16,.95-.21,1.92-.39,2.9-.53,1.63-.23,3.3-.34,5-.34s3.46,.12,5.14,.37c1.18,.17,2.34,.39,3.47,.67,.93,1.48,1.47,3.25,1.47,5.14Z"/><path class="cls-13" d="M63.15,52.1v10.54c-.49,.58-1.01,1.14-1.54,1.68-.29,.29-.58,.58-.87,.87-.45,.44-.92,.86-1.4,1.27-1.8,1.55-3.75,2.93-5.84,4.1-.6,.34-1.22,.66-1.84,.97-2.12,1.04-4.35,1.87-6.67,2.48-2.9,.76-5.95,1.16-9.09,1.16h0c-1.23,0-2.44-.06-3.64-.18-1.83-.18-3.61-.5-5.35-.95-2.36-.61-4.63-1.45-6.78-2.51-.62-.3-1.24-.63-1.84-.97-2.08-1.17-4.04-2.55-5.84-4.11-.48-.41-.94-.83-1.4-1.27-.3-.28-.59-.57-.87-.87-.53-.54-1.04-1.1-1.54-1.68v-11.5h2.4v-2.93l8.73-.06v-9.47l-4.57-2.12-1.35-.63-3.05-1.42c-.79-.34-.79-1.46,0-1.8l23.71-10.23c.88-.38,1.88-.38,2.76,0l23.71,10.23c.79,.34,.79,1.46,0,1.8l-8.98,4.17v9.47l7.77,.06c.53,0,.96,.44,.96,.97v1.97h1.44c.53,0,.97,.43,.97,.97Z"/><path class="cls-13" d="M13.87,35.81v6.83c-.71,.29-1.21,.98-1.21,1.8,0,1.07,.87,1.94,1.94,1.94s1.94-.87,1.94-1.94c0-.85-.55-1.58-1.32-1.84v-6.2l-1.35-.58Z"/></g><g><path class="cls-4" d="M36.47,0h-1.06V17.14h1.06c4.73,0,8.48-3.84,8.48-8.57S41.21,0,36.47,0Z"/><path class="cls-10" d="M43.98,8.57c0,4.73-3.84,8.57-8.57,8.57-1.32,0-2.57-.3-3.69-.83-.17-.08-.33-.16-.49-.25-2.62-1.46-4.4-4.27-4.4-7.49s1.77-6.02,4.4-7.49c.16-.09,.32-.17,.49-.25,1.12-.53,2.37-.83,3.69-.83,4.73,0,8.57,3.84,8.57,8.57Z"/><path class="cls-8" d="M35.41,15.85c-4.02,0-7.28-3.27-7.28-7.28s3.27-7.28,7.28-7.28,7.28,3.27,7.28,7.28-3.27,7.28-7.28,7.28Zm0-12.91c-3.1,0-5.62,2.52-5.62,5.62s2.52,5.62,5.62,5.62,5.62-2.52,5.62-5.62-2.52-5.62-5.62-5.62Z"/><path class="cls-7" d="M37.66,10.86c-.17,.28-.43,.52-.77,.7-.34,.18-.74,.28-1.2,.3v.74h-.59v-.75c-.65-.06-1.17-.25-1.57-.58-.4-.33-.61-.79-.63-1.36h1.67c.04,.37,.21,.6,.53,.7v-1.45c-.48-.12-.86-.24-1.14-.36-.28-.12-.53-.3-.75-.56-.21-.26-.32-.61-.32-1.05,0-.55,.21-1,.62-1.34s.94-.52,1.59-.57v-.74h.59v.74c.64,.05,1.15,.24,1.52,.56,.37,.32,.58,.77,.62,1.35h-1.68c-.04-.33-.19-.54-.47-.64v1.42c.51,.14,.9,.27,1.17,.38,.27,.11,.52,.29,.74,.54,.22,.25,.33,.6,.33,1.04,0,.34-.09,.65-.26,.93Zm-2.97-3.35c.09,.1,.23,.2,.41,.27v-1.27c-.17,.03-.31,.1-.4,.2-.1,.1-.15,.24-.15,.42,0,.15,.05,.28,.14,.38Zm1.43,2.91c.11-.12,.16-.26,.16-.43,0-.16-.05-.29-.15-.39-.1-.1-.25-.19-.44-.26v1.3c.18-.03,.33-.1,.43-.22Z"/></g><g><path class="cls-2" d="M50.45,34.34v14.53c0,4.67-29.1,4.67-29.1,0v-14.53h29.1Z"/><path class="cls-1" d="M50.45,34.34v4.22l-13.25,5.72c-.83,.36-1.77,.36-2.61,0l-13.25-5.71v-4.22h29.1Z"/><path class="cls-14" d="M59.57,32.15l-22.37,9.65c-.83,.36-1.77,.36-2.61,0l-22.37-9.65c-.74-.32-.74-1.38,0-1.7l22.37-9.65c.83-.36,1.77-.36,2.61,0l22.37,9.65c.74,.32,.74,1.38,0,1.7Z"/><path class="cls-12" d="M30.37,28.61l11,4.47c.17,.07,.35,.07,.51,.02l1.44-.6c.18-.07,.17-.33-.02-.4l-11-4.47c-.17-.07-.35-.07-.51-.02l-1.44,.6c-.18,.07-.17,.33,.02,.4Z"/></g><g><path class="cls-14" d="M35.9,53.77v21.39h0c-1.23,0-2.44-.06-3.64-.18-1.83-.18-3.61-.5-5.35-.95-2.36-.61-4.63-1.45-6.78-2.51-.62-.3-1.24-.63-1.84-.97-2.08-1.17-4.04-2.55-5.84-4.11-.48-.41-.94-.83-1.4-1.27-.3-.28-.59-.57-.87-.87v-12.54c0-.52,.42-.94,.94-.94h21.82c1.62,0,2.93,1.3,2.96,2.91h0v.03Z"/><path class="cls-3" d="M35.9,53.75h0v21.41h0c-1.23,0-2.44-.06-3.64-.18-1.83-.18-3.61-.5-5.35-.95-2.36-.61-4.63-1.45-6.78-2.51-.62-.3-1.24-.63-1.84-.97-2.08-1.17-4.04-2.55-5.84-4.11v-17.44c0-.52,.42-.94,.94-.94h19.55c1.62,0,2.94,1.31,2.96,2.93v2.74h0Z"/><path class="cls-14" d="M61.61,51.8v12.51c-.29,.29-.58,.58-.87,.87-.45,.44-.92,.86-1.4,1.27-1.8,1.55-3.75,2.93-5.84,4.1-.6,.34-1.22,.66-1.84,.97-2.12,1.04-4.35,1.87-6.67,2.48-2.9,.76-5.95,1.16-9.09,1.16h0v-21.37s0-.02,0-.02h0v-.02h0c.03-1.62,1.34-2.91,2.96-2.91h21.79c.53,0,.97,.43,.97,.97Z"/><path class="cls-5" d="M59.34,49.04v17.41c-1.8,1.55-3.75,2.93-5.84,4.1-.6,.34-1.22,.66-1.84,.97-2.12,1.04-4.35,1.87-6.67,2.48-2.9,.76-5.95,1.16-9.09,1.16h0v-24.13s0-.02,0-.02c.01-1.62,1.33-2.93,2.96-2.93h19.52c.53,0,.97,.43,.97,.97Z"/><g><rect class="cls-11" x="16.39" y="51.79" width="11.04" height=".97" rx=".38" ry=".38"/><rect class="cls-11" x="28.45" y="51.79" width="3.52" height=".97" rx=".38" ry=".38"/><rect class="cls-11" x="16.39" y="54.91" width="15.58" height=".97" rx=".38" ry=".38"/><rect class="cls-11" x="16.39" y="58.04" width="7.46" height=".97" rx=".38" ry=".38"/><rect class="cls-11" x="24.51" y="58.04" width="7.46" height=".97" rx=".38" ry=".38"/><rect class="cls-11" x="16.39" y="61.17" width="15.58" height=".97" rx=".38" ry=".38"/><rect class="cls-11" x="28.45" y="64.3" width="3.52" height=".97" rx=".38" ry=".38"/><rect class="cls-11" x="16.39" y="64.3" width="11.51" height=".97" rx=".38" ry=".38"/><rect class="cls-11" x="16.39" y="67.43" width="15.58" height=".97" rx=".38" ry=".38"/><path class="cls-11" d="M31.97,71.04c0,.13-.05,.25-.14,.34-.09,.09-.21,.14-.34,.14h-11.35c-.62-.3-1.24-.63-1.84-.97h13.19c.27,0,.48,.22,.48,.48Z"/></g><g><rect class="cls-11" x="44.37" y="51.79" width="11.04" height=".97" rx=".38" ry=".38" transform="translate(99.78 104.54) rotate(180)"/><rect class="cls-11" x="39.83" y="51.79" width="3.52" height=".97" rx=".38" ry=".38" transform="translate(83.18 104.54) rotate(180)"/><rect class="cls-11" x="39.83" y="54.91" width="15.58" height=".97" rx=".38" ry=".38" transform="translate(95.24 110.79) rotate(180)"/><rect class="cls-11" x="47.95" y="58.04" width="7.46" height=".97" rx=".38" ry=".38" transform="translate(103.36 117.05) rotate(180)"/><rect class="cls-11" x="39.83" y="58.04" width="7.46" height=".97" rx=".38" ry=".38" transform="translate(87.12 117.05) rotate(-180)"/><rect class="cls-11" x="39.83" y="61.17" width="15.58" height=".97" rx=".38" ry=".38" transform="translate(95.24 123.31) rotate(180)"/><rect class="cls-11" x="39.83" y="64.3" width="3.52" height=".97" rx=".38" ry=".38" transform="translate(83.18 129.56) rotate(-180)"/><rect class="cls-11" x="43.91" y="64.3" width="11.51" height=".97" rx=".38" ry=".38" transform="translate(99.32 129.56) rotate(-180)"/><rect class="cls-11" x="39.83" y="67.43" width="15.58" height=".97" rx=".38" ry=".38" transform="translate(95.24 135.82) rotate(-180)"/><path class="cls-11" d="M53.5,70.55c-.6,.34-1.22,.66-1.84,.97h-11.35c-.13,0-.25-.05-.34-.14-.09-.09-.14-.21-.14-.34,0-.27,.22-.48,.48-.48h13.19Z"/></g></g><polygon class="cls-6" points="15.11 33.39 16.39 33.94 16.39 41.53 15.11 41.53 15.11 33.39"/><circle class="cls-9" cx="15.8" cy="41.53" r="1.83"/></g></g></svg>