<?xml version="1.0" encoding="UTF-8"?><svg id="Layer_2" xmlns="http://www.w3.org/2000/svg" viewBox="0 0 15.22 15.22"><defs><style>.cls-1{fill:#b3b3b3;}</style></defs><g id="Layer_1-2"><path id="Path_7846" class="cls-1" d="M11.68,2.63h0c-.5,0-.91,.41-.91,.91s.41,.91,.91,.91,.91-.41,.91-.91-.41-.91-.91-.91h0Zm3.5,1.84c-.01-.63-.13-1.26-.35-1.85-.19-.51-.49-.97-.88-1.35-.38-.39-.84-.69-1.35-.88-.59-.22-1.22-.34-1.85-.36-.81-.05-1.07-.05-3.14-.05s-2.33,0-3.14,.05c-.63,.01-1.26,.13-1.85,.36-.51,.19-.97,.49-1.35,.88-.39,.38-.69,.84-.88,1.35C.18,3.22,.06,3.84,.05,4.48c-.05,.81-.05,1.07-.05,3.14s0,2.33,.05,3.14c.01,.63,.13,1.26,.36,1.85,.19,.51,.49,.97,.88,1.35,.38,.39,.84,.69,1.35,.88,.59,.22,1.22,.34,1.85,.36,.81,.05,1.07,.05,3.14,.05s2.33,0,3.14-.05c.63-.01,1.26-.13,1.85-.36,.51-.19,.97-.49,1.35-.88,.39-.38,.69-.84,.88-1.35,.22-.59,.34-1.22,.35-1.85,0-.81,.05-1.07,.05-3.14s0-2.33-.05-3.14Zm-1.37,6.18c0,.48-.09,.96-.26,1.42-.12,.33-.32,.63-.57,.88-.25,.25-.55,.45-.88,.57-.45,.17-.93,.25-1.42,.26-.76,.04-1.04,.05-3.04,.05s-2.28,0-3.04-.05c-.5,0-1-.07-1.48-.23-.32-.13-.6-.33-.84-.57-.25-.24-.45-.54-.56-.88-.19-.46-.29-.95-.3-1.45,0-.76-.05-1.04-.05-3.04s0-2.28,.05-3.04c0-.49,.09-.98,.27-1.45,.13-.32,.34-.61,.6-.84,.23-.26,.52-.47,.84-.61,.46-.17,.95-.25,1.45-.26,.76,0,1.04-.05,3.04-.05s2.28,0,3.04,.05c.48,0,.96,.09,1.42,.26,.35,.13,.66,.34,.91,.61,.25,.23,.44,.52,.57,.84,.17,.46,.26,.95,.26,1.45,.04,.76,.05,1.04,.05,3.04s0,2.28-.05,3.04ZM7.61,3.71c-2.15,0-3.89,1.76-3.89,3.91,0,2.15,1.76,3.89,3.91,3.89s3.89-1.76,3.89-3.91c0-1.03-.41-2.02-1.14-2.74-.73-.73-1.73-1.14-2.77-1.14Zm0,6.44c-1.4,0-2.53-1.13-2.53-2.53s1.13-2.53,2.53-2.53,2.53,1.13,2.53,2.53h0c0,1.4-1.13,2.53-2.53,2.53Z"/></g></svg>