<?xml version="1.0" encoding="UTF-8"?><svg id="Layer_2" xmlns="http://www.w3.org/2000/svg" viewBox="0 0 121.86 78.29"><defs><style>.cls-1{fill:#ffc300;}.cls-2{fill:#ff5900;}</style></defs><g id="Layer_1-2"><g><g><path class="cls-2" d="M0,18.79H9.24v50.42h15.21v8.4H0V18.79Z"/><path class="cls-2" d="M27.73,32.91c0-9.41,4.96-14.79,14.03-14.79s14.03,5.38,14.03,14.79v30.59c0,9.41-4.96,14.79-14.03,14.79s-14.03-5.38-14.03-14.79v-30.59Zm9.24,31.18c0,4.2,1.85,5.8,4.79,5.8s4.79-1.6,4.79-5.8v-31.77c0-4.2-1.85-5.8-4.79-5.8s-4.79,1.6-4.79,5.8v31.77Z"/><path class="cls-2" d="M75.64,44.85h12.94v18.66c0,9.41-4.71,14.79-13.78,14.79s-13.78-5.38-13.78-14.79v-30.59c0-9.41,4.71-14.79,13.78-14.79s13.78,5.38,13.78,14.79v5.71h-8.74v-6.3c0-4.2-1.85-5.8-4.79-5.8s-4.79,1.6-4.79,5.8v31.77c0,4.2,1.85,5.71,4.79,5.71s4.79-1.51,4.79-5.71v-10.84h-4.2v-8.4Z"/><path class="cls-2" d="M93.79,32.91c0-9.41,4.96-14.79,14.03-14.79s14.03,5.38,14.03,14.79v30.59c0,9.41-4.96,14.79-14.03,14.79s-14.03-5.38-14.03-14.79v-30.59Zm9.24,31.18c0,4.2,1.85,5.8,4.79,5.8s4.79-1.6,4.79-5.8v-31.77c0-4.2-1.85-5.8-4.79-5.8s-4.79,1.6-4.79,5.8v31.77Z"/></g><g><path class="cls-1" d="M.55,8.09C.55,3.37,4.17,0,9.04,0c2.7,0,4.96,.98,6.43,2.77l-2.32,2.14c-1.05-1.21-2.37-1.83-3.93-1.83-2.93,0-5,2.06-5,5s2.08,5,5,5c1.56,0,2.88-.63,3.93-1.85l2.32,2.14c-1.47,1.81-3.73,2.79-6.46,2.79C4.17,16.18,.55,12.8,.55,8.09Z"/><path class="cls-1" d="M16.59,8.09C16.59,3.44,20.21,0,25.15,0s8.56,3.42,8.56,8.09-3.64,8.09-8.56,8.09-8.56-3.44-8.56-8.09Zm13.45,0c0-2.97-2.1-5-4.89-5s-4.89,2.03-4.89,5,2.1,5,4.89,5,4.89-2.03,4.89-5Z"/><path class="cls-1" d="M50.66,15.91l-.02-9.38-4.6,7.73h-1.63l-4.58-7.53V15.91h-3.4V.27h2.99l5.85,9.72L51.04,.27h2.97l.04,15.64h-3.4Z"/><path class="cls-1" d="M71.33,5.94c0,3.49-2.61,5.65-6.79,5.65h-3.15v4.31h-3.62V.27h6.77c4.18,0,6.79,2.17,6.79,5.67Zm-3.66,0c0-1.72-1.12-2.73-3.33-2.73h-2.95v5.43h2.95c2.21,0,3.33-1.01,3.33-2.7Z"/><path class="cls-1" d="M83.41,12.56h-7.26l-1.39,3.35h-3.71L78.03,.27h3.58l6.99,15.64h-3.8l-1.39-3.35Zm-1.14-2.75l-2.48-5.99-2.48,5.99h4.96Z"/><path class="cls-1" d="M104.57,.27V15.91h-2.97l-7.8-9.5V15.91h-3.57V.27h2.99l7.77,9.5V.27h3.58Z"/><path class="cls-1" d="M115.79,10.37v5.54h-3.62v-5.59L106.11,.27h3.84l4.18,6.95L118.31,.27h3.55l-6.08,10.1Z"/></g></g></g></svg>