<?xml version="1.0" encoding="UTF-8"?><svg id="Layer_2" xmlns="http://www.w3.org/2000/svg" xmlns:xlink="http://www.w3.org/1999/xlink" viewBox="0 0 227.17 387.65"><defs><style>.cls-1,.cls-2,.cls-3,.cls-4{fill:none;}.cls-5{clip-path:url(#clippath);}.cls-6{fill:#00c9e2;}.cls-7{fill:#f74000;}.cls-8{fill:#f69887;}.cls-9{fill:#eb6c6a;}.cls-10{fill:#eb8175;}.cls-11{fill:#fff1c6;}.cls-12{fill:#ffee93;}.cls-13{fill:#ffc300;}.cls-14{fill:#ff5900;}.cls-15{fill:#231938;}.cls-16{fill:#4a3778;}.cls-17{fill:#60489d;}.cls-2{stroke:#4a3778;}.cls-2,.cls-3,.cls-4{stroke-linecap:round;stroke-miterlimit:10;stroke-width:1.13px;}.cls-3{stroke:#a83b4f;}.cls-4{stroke:#271f64;}</style><clipPath id="clippath"><path class="cls-1" d="M227.17,160.94c0,62.73-50.85,113.59-113.59,113.59S0,223.68,0,160.94C0,118.27,23.53,81.1,58.32,61.68c16.36-9.13,5.65-50.54,23.96-58.75,9.92-4.45,53.75-5.21,69.58,7.73,19.31,15.79,7.03,45.6,15.87,50.4,35.41,19.23,59.44,56.75,59.44,99.88Z"/></clipPath></defs><g id="Layer_1-2"><g><circle class="cls-12" cx="113.59" cy="160.94" r="113.59"/><g class="cls-5"><g><path d="M151.03,23.31c9.99-12.36,14.53,40.26,8.14,55.22-1.11,2.61-2.4,5.18-2.98,7.96s-.4,5.87,1.23,8.19c1.99,2.83,5.61,3.92,8.24,6.14,3.44,2.9,4.99,7.67,4.73,12.19s-2.15,8.81-4.58,12.62c-6.94,10.86-21.83,17.15-34.16,20.62-12.32,3.47-25.45,3.26-38.06,1.13-9-1.52-18.46-4.4-24.14-11.61-5.95-7.54-6.12-19.16-.41-26.88,2.84-3.83,7.07-6.76,8.74-11.23,2.27-6.08-3.24-9.7-4.6-14.78-3.91-14.64,7.46-13.76,.83-47.33-.49-2.44,14.99,.4,17.47,.28,20.11-1,40.34,.72,59.81,5.53,1.91-4.66-3.14-14.5-.27-18.04Z"/><path class="cls-10" d="M89.59,122.54c-2.06-6.79-5.02-13.31-8.15-18.76-7.5,.6-19.21,2.73-24.17,8.4-4.72,5.37-4.89,13.2-5.47,20.32-1.73,21.21-5.76,40.62-6.1,61.89-.1,5.8,.5,11.99,4.11,16.52,3,3.76,8.85,5.75,12.71,2.89,3.45-2.56,3.78-7.49,3.96-11.78,1.11-27.32,8.49-54.37,23.11-79.48Z"/><g><path class="cls-9" d="M50.37,328.52c-5.33,17.31-10.67,34.62-16,51.94,19.24,3.91,63.25,.39,64.83-1.26,1.58-1.65,2.42-3.85,3.22-6,4.53-12.13,9.05-24.26,13.59-36.39-22.27,.8-44.62-1.06-65.63-8.29Z"/><path class="cls-8" d="M178.99,312.26c-3.74,20.28-9.05,40.29-15.86,59.84-1.77,5.09-4.04,10.61-9.03,13.19-3.09,1.6-6.74,1.79-10.27,1.92-16.27,.62-32.57,.58-48.83-.09,5.41-14.15,8.58-29.04,9.39-44.05,24.88-8.75,49.76-17.5,74.61-30.81Z"/><g><g><path class="cls-17" d="M170.41,360.39c-49.2,6.73-100.43,4.6-132.1-2.46,5.76-22.24,25.76-95.03,26.56-101.93,.21-1.73,.42-4.35,.64-7.55,.12-1.51,.22-3.14,.3-4.87,.52-8.9,.96-20.32,.99-29.71,.01-.31,.01-.63,.01-.92,31.22-1.08,59.66,2.03,88.48-1.91,5.95,5.44,10.75,11.45,14.56,17.91,.31,.54,.64,1.09,.94,1.63,20.64,36.89,10.57,87.67-.38,129.8Z"/><path class="cls-14" d="M170.79,230.6c-14.39,6.95-49.07,22.21-105.29,17.86,.12-1.51,.22-3.14,.3-4.87,.52-8.9,.96-20.32,.99-29.71,.01-.31,.01-.63,.01-.92,31.22-1.08,59.66,2.03,88.48-1.91,5.95,5.44,10.75,11.45,14.56,17.91,.31,.54,.63,1.08,.94,1.63Z"/><path class="cls-16" d="M140.86,268.23c-6.99,18.61-14.27,37.7-27.58,52.46-13.32,14.76-34.24,24.41-53.31,18.8,34.11-12.93,63.18-38.71,80.9-71.26Z"/></g><g><g><path class="cls-2" d="M68.13,248.64c34.92,2.59,69.61-3.25,101.65-17.39"/><path class="cls-2" d="M163.52,234.43c9.73,18.28,12.32,39.69,10.81,60.34-1.51,20.66-7.75,45.34-13.21,65.31"/><path class="cls-2" d="M153.98,238.02c.72,2.77,1.46,5.58,2.75,8.14,1.3,2.56,3.22,4.9,5.77,6.18,2.57,1.28,5.84,1.37,8.21-.25"/></g><g><path class="cls-2" d="M105.57,248.4c1.87,14.46,2.09,29.13,.66,43.64"/><path class="cls-2" d="M114.27,247.61c1.09,7.58,1.61,15.23,1.54,22.88-.02,2.13-.14,4.41-1.46,6.08-1.72,2.16-4.44,2.5-7.19,2.68"/></g></g></g></g><g><g><path class="cls-14" d="M161.35,215.07c-17.53,13.95-92.52,13.04-96.49,4.88-1.95-4-2.54-18.11-2.03-35.13,.94-32.68,5.84-76.05,12.57-79.13,13.21-6.04,47.72-4.75,71.63,6.5,8.75,4.12,17.54,8.61,21.37,17.49,1.4,3.26,2,7.52,2.03,12.36,.17,18.57-8.02,45.41-10.61,54.96-1.44,5.31,9.23,11.94,1.53,18.07Z"/><path class="cls-7" d="M161.35,215.07c-17.53,13.95-92.52,13.04-96.49,4.88-1.95-4-2.54-18.11-2.03-35.13,13.91,7.4,29.55,11.39,44.98,9.02,18.4-2.83,34.56-14.36,46.59-28.56,6.11-7.2,11.31-15.08,16.02-23.27,.17,18.57-8.02,45.41-10.61,54.96-1.42,5.33,9.24,11.96,1.54,18.09Z"/></g><g><g><path class="cls-11" d="M101.01,131.66c11.16,5.78,30.39,9.65,34.9,7.65,8.33-3.68,10.13-27.15,8.42-30.08-2.43-4.15-7.46-7.01-12.27-7.11-11.32,11.49-22.04,15.7-31.05,29.54Z"/><path class="cls-11" d="M113.15,104.6c-6.85-6.84-19.81-5.64-23.22-2.47-5.43,5.05-16.1,22.55-15.26,29.45,.41,3.38,22.54,1.13,26.34-.28,3.95-11.33,5.99-14.26,12.14-26.7Z"/></g><g><circle class="cls-13" cx="98.65" cy="140.69" r="2.37"/><circle class="cls-13" cx="97.22" cy="152.89" r="2.37"/></g></g><g><path class="cls-8" d="M100.76,132.38c15.03-7.23,37.64-16.9,37.35-21.3-.17-2.7-2.45-10.63-2.78-15.78-.32-4.85-.1-9.8,.76-14.75-10.67,1-18.43,.28-28.84,.64-.15,3.47-.55,8.59-1.46,13.59-.5,2.73-1.31,4.58-2.33,5.8-1.51,1.8-3.99,.77-5.58,2.14-3.35,2.92-1.05,17.2,2.88,29.68Z"/><path class="cls-9" d="M103.47,100.55c4.85,1.17,9.87,1.48,14.82,.85,6-.76,11.84-2.88,17.04-6.12-.32-4.85-.1-9.8,.76-14.75-10.67,1-18.43,.28-28.84,.64-.15,3.47-.55,8.59-1.46,13.59-.5,2.73-1.3,4.59-2.32,5.8Z"/></g><g><path class="cls-8" d="M65.88,242.7c9.8-5.27,14.06-8.46,18.28-15.36,.64-6.66,.88-13.34,1.13-20.01-5.77-1.34-11.78-2.6-17.8-3.85-1.64-.35-3.31-.69-4.99-.49-1.66,.21-3.35,1.06-4.14,2.58-.8,1.52-.42,3.73,1.99,4.54-6.02,2.23-16.8,6.5-17.06,12.87-.05,1.35,1.01,2.54,2.19,3.13,1.18,.59,2.51,.7,4.36,1.35-1.46,1.14-2.09,3.29-1.51,5.08,.58,1.79,2.35,3.1,4.76,2.99-.93,1.32-.95,3.26-.03,4.6,.92,1.34,2.69,1.96,4.2,1.49-.56,1.91,.76,3.99,2.49,4.85,1.74,.85,3.93,.78,5.85,.58,.04-1.24,.15-2.12,.28-4.36Z"/><path class="cls-8" d="M73.13,227.11c29.96,5.75,81.41,1.04,91.62-6.36,7.25-5.26,11.1-77.32,6.81-86.93-2.28-5.09-4.59-9.9-12.03-14.14-8.35-4.76-15.08,13.14-16.49,23-2.84,19.77-2.09,35.26-2.05,54.3-21.15,7.49-44.04,10.47-66.4,10.47,.29,3.77-1.4,15.93-1.46,19.65Z"/></g></g><g><g><path class="cls-8" d="M66.68,121.8c-3.45-6.87-8.96-14.17-10.11-19.22-1.05-4.56,2.51-18.51,5.31-21.01,3.35-3,18.52-2.68,18.32,.43-.11,1.67-1.74,2.83-3.36,3.01s-8.54,1.55-9.41,1.89c-.98,.38-1.66,2.35-1.89,6.62,5.21-3.99,7.04-6.01,10.35-5.62,1.99,.24,3.56,2.08,3.41,4.77,.78-.94,3.1-.98,4.13-.38,2.2,1.3,2.64,3.27,2.32,5.78,3.74-1.74,3.91,2.55,4.09,5.73,.18,3.18,.06,6.4-.49,9.54-.33,1.92-1.65,3.32-2.97,2.77-2-.82-2.31-5.33-2.58-8.12-.67,.19-2.43,1.51-2.65,2.55,3.59,3.78,6.3,10.51,3.64,16.57-8.5,3.1-14.25,2.42-18.12-5.31Z"/><g><path class="cls-3" d="M78.67,93.08c-2.95,1.59-5.73,3.49-8.27,5.67"/><path class="cls-3" d="M85.01,98.21c-2.76,1.44-5.28,3.35-7.4,5.61"/></g></g><g><path class="cls-8" d="M85.38,125.03c-2.49,22.52-4.99,45.03-7.48,67.55-.02,.24-.05,.47-.09,.72-.85,7.51-2.41,15.82-8.7,19.91-6.3,4.11-18.09,4.46-22.03-6.14-.16-.42-.29-.86-.42-1.32-2.45-8.82,1.28-22.62,6.32-33.2,6.95-14.56,12.45-34.99,14.89-50.93,5.57,.59,11.16,1.2,17.49,3.4Z"/><path class="cls-10" d="M77.81,193.3c-.85,7.51-2.41,15.82-8.7,19.91-6.3,4.11-18.09,4.46-22.03-6.14-.16-.42-.29-.86-.42-1.32,.09,.09,.19,.18,.28,.26,3.09,2.71,7.15,4.5,11.27,4.21,4.15-.28,7.92-2.61,10.99-5.44,3.59-3.28,6.38-7.2,8.61-11.48Z"/></g></g><g><path class="cls-9" d="M65.52,55.4c-2.19,4.36,1.27,10.23,7.75,13.11s13.5,1.67,15.69-2.69c2.19-4.36-1.27-10.23-7.75-13.11-6.46-2.88-13.49-1.67-15.69,2.69Z"/><g><path class="cls-8" d="M77.25,54.74c.38,23.18,10.57,41.4,27.81,42.43,20.09,1.2,44.74-15.86,48.29-43.21,2.99-22.99-16.18-42.07-37.75-41.75-21.56,.3-38.73,19.35-38.35,42.53Z"/><path class="cls-9" d="M144.32,49.37c-16.44,.33-32.81-8.1-41.96-21.61-10.42,6.01-19.22,14.82-25.22,25.25,.25-11.17,4.32-22.23,11.36-30.9,1.75-2.15,3.76-4.21,6.31-5.28,2.49-1.04,5.28-1.03,7.98-.97,11.94,.26,23.85,1.24,35.67,2.92,.93,.13,1.89,.28,2.64,.84,1.2,.9,1.48,2.55,1.66,4.03,.98,8.01,1.72,16.04,1.55,25.71Z"/></g><g><path class="cls-3" d="M94.17,64c-1.52,1.91-1.56,4.27-.11,6.2"/><path class="cls-3" d="M108.76,78.56c-3.18,3.17-8.14,4.44-12.46,3.21"/><g><path d="M87.06,60.41c1,.08,1.75-1,1.89-2.73,.14-1.73-.42-2.89-1.42-2.97s-1.75,1-1.89,2.73c-.14,1.74,.42,2.9,1.42,2.97Z"/><path d="M112.88,62.01c1,.08,1.75-1,1.89-2.73s-.42-2.89-1.42-2.97-1.75,1-1.89,2.73,.42,2.89,1.42,2.97Z"/><path class="cls-4" d="M81.8,47.58c3.81,1.07,8.95-.68,10.99-3.46"/><path class="cls-4" d="M110.24,44.61c4.22-1.49,9.31-.09,12.16,3.37"/></g></g><g><path d="M156.59,64.43c-3.78,4.17-4.27,3.71-8.7,6.14-2.55-6.84-4.81-12.79-7.27-19.43-17.72-3.36-27.74-14.68-37.43-29.22-11.42,7.01-21.53,17.2-25.95,33.82-4.07-6.73-5.88-14.44-5.9-22.27-.01-3.22,.29-6.45,.84-9.65,.74-4.2,2.02-8.36,4.34-11.94,2.33-3.56,5.77-6.53,9.86-7.68,6.6-1.89,13.53-.46,19.78,2.37,9.22-3.28,18.86-3.7,28.23-1.04,3.13,.88,6.21,2.19,9.08,3.87,5.76,3.31,10.73,8.13,13.64,13.91,5.62,11.12,2.95,28.39-.52,41.11Z"/><path class="cls-15" d="M143.49,9.42c-11.9-3.51-25.06-2.77-36.42,2.23-9.29-3.06-19.9,.67-26.81,7.6-3.98,4.01-6.89,8.94-8.91,14.22-.01-3.22,.29-6.45,.84-9.65,.74-4.2,2.02-8.36,4.34-11.94,2.33-3.56,5.77-6.53,9.86-7.68,6.6-1.89,13.53-.46,19.78,2.37,9.22-3.28,18.86-3.7,28.23-1.04,3.13,.88,6.21,2.2,9.09,3.87Z"/></g><path class="cls-8" d="M164.49,66.44c1.42,4.58-2.85,9.51-9.54,11.02-6.69,1.51-13.27-.97-14.7-5.55s2.85-9.51,9.54-11.02c6.69-1.52,13.27,.97,14.7,5.55Z"/></g></g></g><path class="cls-6" d="M193.85,60.36c1.24,2.32,1.34,4.93,.28,7.81-1.05,2.86-2.76,4.7-5.15,5.52-2.39,.83-5.09,.69-8.12-.42l-1.41,3.3-5.38-1.97,2.51-7.51,1.97,.72c2.54,.93,4.61,1.31,6.23,1.14,1.61-.17,2.75-1.14,3.4-2.92,.47-1.28,.47-2.44,0-3.47s-1.34-1.78-2.62-2.25-2.51-.51-3.52-.05-1.75,1.32-2.22,2.61l-5.77-2.12c.62-1.79,1.58-3.24,2.88-4.35,1.3-1.11,2.86-1.78,4.68-2,1.82-.23,3.76,.04,5.83,.8,3.03,1.11,5.17,2.83,6.42,5.15Zm-23.29,23.64c-.46-.95-.51-1.93-.13-2.95s1.04-1.74,2.01-2.16c.96-.42,2-.43,3.11-.03s1.84,1.06,2.29,2c.45,.94,.49,1.92,.11,2.94s-1.04,1.74-1.99,2.17c-.95,.43-1.96,.44-3.04,.05s-1.89-1.08-2.36-2.03Z"/></g></g></svg>