<?xml version="1.0" encoding="UTF-8"?><svg id="Layer_2" xmlns="http://www.w3.org/2000/svg" xmlns:xlink="http://www.w3.org/1999/xlink" viewBox="0 0 1016.45 1369.02"><defs><style>.cls-1{fill:none;}.cls-2{fill:url(#linear-gradient);}.cls-2,.cls-3{opacity:.19;}.cls-4{clip-path:url(#clippath);}.cls-5{fill:#30244f;}.cls-3{fill:url(#linear-gradient-2);}</style><clipPath id="clippath"><rect class="cls-1" x="141.26" y="56.46" width="650" height="1197.95"/></clipPath><linearGradient id="linear-gradient" x1="652.72" y1="1079.28" x2="504.53" y2="615.17" gradientTransform="matrix(1, 0, 0, 1, 0, 0)" gradientUnits="userSpaceOnUse"><stop offset="0" stop-color="#5e499d" stop-opacity="0"/><stop offset="0" stop-color="#5e499d" stop-opacity="0"/><stop offset="1" stop-color="#5e499d"/></linearGradient><linearGradient id="linear-gradient-2" x1="336.54" y1="316.97" x2="178.73" y2="82.36" xlink:href="#linear-gradient"/></defs><g id="Layer_1-2"><g><rect class="cls-5" x="141.37" y="56.46" width="649.77" height="1200"/><g class="cls-4"><path class="cls-2" d="M1005.41,980.86c-8.69-28.51-22.51-55.45-41.47-78.82-41.15-50.72-116.32-99.99-187.9-79.06-.99,.29-9.96,3.78-10.18,3.54,43.51,45.2,67.8,108.47,67.8,180.81,0,40.66-9.72,81.43-24.29,113.06-14.41,36.07-62.83,94.9-169.29,94.9-72.2,0-134.34-42.14-168.27-100-76.48-130.4,2.48-312.58,137.03-379.8,33.39-16.68,70.73-26.52,108.71-26.52,87.02,0,169.34,36.15,232.17,103.98l14.52-9.06c-67.8-94.92-183.81-158.29-324.16-158.29-232.18,0-391.8,162.8-391.8,361.73s159.62,361.68,391.8,361.68c164.48,0,295.12-85.87,353.15-207.96,26.13-54.97,30.22-120.98,12.18-180.2Z"/><path class="cls-3" d="M424.85,92.15l42.77-34.66-47.78-14.68L409.34,0l-42.21,35.4,2.44,23.68-27.5,21.61c-36.32-32.72-85.71-52.85-140.14-52.85C90.42,27.84,0,112.33,0,216.56c0,104.23,90.42,188.72,201.93,188.72,111.53,0,201.94-84.49,201.94-188.72,0-39.17-12.77-75.56-34.64-105.71l30.96-24.33,24.65,5.63Zm-104.91,124.41c0,60.9-52.83,110.28-118.01,110.28-65.17,0-117.99-49.38-117.99-110.28,0-60.9,52.83-110.27,117.99-110.27,28.62,0,54.86,9.52,75.29,25.36l-57.93,45.52c-5.35-2.06-11.21-3.2-17.35-3.2-25.17,0-45.58,19.07-45.58,42.59,0,23.52,20.4,42.59,45.58,42.59,25.17,0,45.58-19.07,45.58-42.6,0-3.16-.38-6.24-1.08-9.21l57.93-45.52c9.89,16.13,15.58,34.81,15.58,54.73Z"/></g></g></g></svg>