<?xml version="1.0" encoding="UTF-8"?><svg id="Layer_2" xmlns="http://www.w3.org/2000/svg" viewBox="0 0 73.79 73.79"><defs><style>.cls-1{fill:#00c077;}.cls-2{fill:#f74000;}.cls-3{fill:#ff9f22;}.cls-4{fill:#fff5f5;}.cls-5{fill:#ececf1;}.cls-6{fill:#ffc300;}.cls-7{fill:#ff4600;}.cls-8{fill:#ff5c00;}.cls-9{fill:#db3900;}.cls-10{fill:#5dcf8e;}.cls-11{fill:#473272;}</style></defs><g id="Layer_1-2"><g><path class="cls-11" d="M66.23,53.75v3.69c0,1.24-.45,2.44-1.25,3.39-1.37,1.6-2.87,3.08-4.48,4.43-.84,.7-2.12,.1-2.12-.99,0-4.44-3.6-8.04-8.04-8.04H16.81c-8.33,0-15.39-6.17-16.49-14.43C.11,40.2,0,38.56,0,36.9,0,16.54,16.48,.04,36.82,0c20.3-.04,36.92,16.5,36.97,36.8,0,3.97-.61,7.8-1.76,11.38-.12,.38-.47,.63-.87,.63-2.73,0-4.94,2.21-4.94,4.94h0Z"/><path class="cls-6" d="M60.53,20.9v44.33c-1.75,1.46-3.64,2.77-5.65,3.89-.7,.39-1.56-.12-1.56-.92V20.9c0-.8,.65-1.44,1.44-1.44h4.32c.8,0,1.44,.65,1.44,1.44h0Z"/><path class="cls-10" d="M12.97,57.65h-4.32c-.8,0-1.44-.65-1.44-1.44V20.18c0-.8,.65-1.44,1.44-1.44h4.32c.8,0,1.44,.65,1.44,1.44V56.21c0,.8-.65,1.44-1.44,1.44Zm59.09-9.56v-10.62c0-.8-.65-1.44-1.44-1.44h-4.32c-.8,0-1.44,.65-1.44,1.44v23.5c3.21-3.72,5.68-8.09,7.21-12.88Zm-34.59-3.41V8.65c0-.8-.65-1.44-1.44-1.44h-4.32c-.8,0-1.44,.65-1.44,1.44V44.68c0,.8,.65,1.44,1.44,1.44h4.32c.8,0,1.44-.65,1.44-1.44Z"/><path class="cls-6" d="M47.56,57.65h-4.32c-.8,0-1.44-.65-1.44-1.44V23.64c0-.8,.65-1.44,1.44-1.44h4.32c.8,0,1.44,.65,1.44,1.44V56.21c0,.8-.65,1.44-1.44,1.44Zm-21.62-7.21V14.41c0-.8-.65-1.44-1.44-1.44h-4.32c-.8,0-1.44,.65-1.44,1.44V50.44c0,.8,.65,1.44,1.44,1.44h4.32c.8,0,1.44-.65,1.44-1.44Zm33.15,10.53h-1.44c-.8,0-1.44-.65-1.44-1.44V20.9c0-.8,.65-1.44,1.44-1.44h1.44c.8,0,1.44,.65,1.44,1.44V59.53c0,.8-.65,1.44-1.44,1.44Z"/><path class="cls-4" d="M57.37,9.04v5.29c0,.4-.32,.72-.72,.72s-.72-.32-.72-.72v-3.48l-13.75,13.75c-.28,.28-.74,.28-1.02,0l-4.44-4.44-16.66,15.52c-.14,.13-.32,.19-.49,.19-.19,0-.38-.08-.53-.23-.27-.29-.26-.75,.04-1.02l17.17-16c.28-.27,.73-.26,1,.02l4.42,4.42,13.3-13.3h-3.61c-.4,0-.72-.32-.72-.72s.32-.72,.72-.72h5.29c.4,0,.72,.32,.72,.72h0Z"/><path class="cls-9" d="M41.66,29.27c-3.81-2.08-8.6-3.22-13.49-3.22s-9.68,1.14-13.49,3.22c-.96,.52-1.53,1.43-1.53,2.42v3.36c0,1.92,1.83,3.48,4.09,3.48h21.86c2.25,0,4.09-1.56,4.09-3.48v-3.36c0-.99-.57-1.9-1.53-2.42Zm.09,5.78c0,1.12-1.19,2.04-2.65,2.04H17.24c-1.46,0-2.65-.91-2.65-2.04v-3.36c0-.46,.29-.89,.78-1.16,3.6-1.96,8.15-3.04,12.8-3.04s9.2,1.08,12.8,3.04c.49,.27,.78,.7,.78,1.16v3.36h0Z"/><path class="cls-9" d="M50.7,39.36v16c0,10.08-8.24,18.27-18.32,18.11-.31,0-.55-.02-.69-.04-14.45-2.04-26.2-12.45-30.21-26.17v-7.9c0-2.96,2.4-5.37,5.37-5.37H45.33c2.96,0,5.37,2.4,5.37,5.37Z"/><path class="cls-2" d="M54.88,39.36v29.76c-5.32,2.97-11.45,4.67-17.98,4.67-1.77,0-3.51-.12-5.21-.37-4.39-5.77-7-12.97-7-20.78,0-6.88,2.02-13.28,5.5-18.65h19.32c2.96,0,5.37,2.4,5.37,5.37h0Z"/><path class="cls-7" d="M56.35,39.6v4.98c0,1.31-.64,2.55-1.71,3.3-7.23,5.05-16.43,8.07-26.46,8.07s-19.23-3.03-26.46-8.07c-1.08-.75-1.71-1.98-1.71-3.3v-4.98c0-3.13,2.54-5.66,5.66-5.66H50.69c3.13,0,5.66,2.54,5.66,5.66h0Z"/><path class="cls-8" d="M56.35,39.6v4.98c0,1.31-.64,2.55-1.71,3.3-7.23,5.05-16.43,8.07-26.46,8.07-1.14,0-2.27-.04-3.39-.12-.06-.85-.1-1.71-.1-2.58,0-7.16,2.19-13.82,5.95-19.32h20.06c3.13,0,5.66,2.54,5.66,5.66h0Z"/><path class="cls-3" d="M34.21,58.24h-12.08c-.74,0-1.34-.6-1.34-1.34v-1.34c0-.74,.6-1.34,1.34-1.34h12.08c.74,0,1.34,.6,1.34,1.34v1.34c0,.74-.6,1.34-1.34,1.34Z"/><path class="cls-6" d="M34.21,58.24h-9.53c-.74,0-1.34-.6-1.34-1.34v-1.34c0-.74,.6-1.34,1.34-1.34h9.53c.74,0,1.34,.6,1.34,1.34v1.34c0,.74-.6,1.34-1.34,1.34Z"/><path class="cls-10" d="M33.54,56.9h-10.73c-.37,0-.67-.3-.67-.67s.3-.67,.67-.67h10.73c.37,0,.67,.3,.67,.67s-.3,.67-.67,.67Z"/><path class="cls-1" d="M26.7,56.9h-3.89c-.37,0-.67-.3-.67-.67s.3-.67,.67-.67h3.89c-.37,0-.67,.3-.67,.67s.3,.67,.67,.67Z"/><path class="cls-9" d="M27.35,28.03c0,1.49-1.2,2.69-2.69,2.69h-6.8c-1.43,0-2.59-.74-2.59-1.65v-.59c0-.38,.29-.74,.78-.96,2.37-1.06,5.21-1.81,8.32-2.15,1.59-.17,2.97,1.08,2.97,2.67h0Z"/><path class="cls-2" d="M41.04,28.47v.59c0,.91-1.16,1.65-2.59,1.65h-13.77c-1.49,0-2.69-1.2-2.69-2.69,0-1.37,1.02-2.52,2.38-2.67,1.22-.13,2.49-.21,3.79-.21,4.58,0,8.79,.88,12.1,2.36,.49,.22,.78,.58,.78,.96h0Z"/><path class="cls-5" d="M47.16,9.87c0,.4-.32,.72-.72,.72h-3.67c-.4,0-.72-.32-.72-.72s.32-.72,.72-.72h3.67c.4,0,.72,.32,.72,.72Z"/><path class="cls-10" d="M46.74,13.19c0,.4-.32,.72-.72,.72h-2.82c-.4,0-.72-.32-.72-.72s.32-.72,.72-.72h2.82c.4,0,.72,.32,.72,.72Zm-3.54-5.91h2.82c.4,0,.72-.32,.72-.72s-.32-.72-.72-.72h-2.82c-.4,0-.72,.32-.72,.72s.32,.72,.72,.72Z"/></g></g></svg>