<?xml version="1.0" encoding="UTF-8"?><svg id="Layer_2" xmlns="http://www.w3.org/2000/svg" viewBox="0 0 82.81 53.2"><defs><style>.cls-1{fill:#b3b3b3;}</style></defs><g id="Layer_1-2"><g><g><path class="cls-1" d="M0,12.77H6.28V47.03h10.34v5.71H0V12.77Z"/><path class="cls-1" d="M18.85,22.36c0-6.4,3.37-10.05,9.54-10.05s9.54,3.65,9.54,10.05v20.79c0,6.4-3.37,10.05-9.54,10.05s-9.54-3.65-9.54-10.05V22.36Zm6.28,21.19c0,2.86,1.26,3.94,3.26,3.94s3.26-1.08,3.26-3.94V21.96c0-2.86-1.26-3.94-3.26-3.94s-3.26,1.09-3.26,3.94v21.59Z"/><path class="cls-1" d="M51.4,30.47h8.79v12.68c0,6.4-3.2,10.05-9.37,10.05s-9.37-3.65-9.37-10.05V22.36c0-6.4,3.2-10.05,9.37-10.05s9.37,3.65,9.37,10.05v3.88h-5.94v-4.28c0-2.86-1.26-3.94-3.26-3.94s-3.26,1.09-3.26,3.94v21.59c0,2.86,1.26,3.88,3.26,3.88s3.26-1.03,3.26-3.88v-7.37h-2.86v-5.71Z"/><path class="cls-1" d="M63.74,22.36c0-6.4,3.37-10.05,9.54-10.05s9.54,3.65,9.54,10.05v20.79c0,6.4-3.37,10.05-9.54,10.05s-9.54-3.65-9.54-10.05V22.36Zm6.28,21.19c0,2.86,1.26,3.94,3.26,3.94s3.26-1.08,3.26-3.94V21.96c0-2.86-1.26-3.94-3.26-3.94s-3.26,1.09-3.26,3.94v21.59Z"/></g><g><path class="cls-1" d="M.38,5.5C.38,2.29,2.83,0,6.14,0c1.84,0,3.37,.67,4.37,1.88l-1.58,1.46c-.71-.82-1.61-1.24-2.67-1.24-1.99,0-3.4,1.4-3.4,3.4s1.41,3.4,3.4,3.4c1.06,0,1.96-.42,2.67-1.26l1.58,1.46c-1,1.23-2.54,1.9-4.39,1.9C2.83,10.99,.38,8.7,.38,5.5Z"/><path class="cls-1" d="M11.28,5.5c0-3.16,2.46-5.5,5.81-5.5s5.81,2.32,5.81,5.5-2.47,5.5-5.81,5.5-5.81-2.34-5.81-5.5Zm9.14,0c0-2.02-1.43-3.4-3.32-3.4s-3.32,1.38-3.32,3.4,1.43,3.4,3.32,3.4,3.32-1.38,3.32-3.4Z"/><path class="cls-1" d="M34.43,10.81l-.02-6.38-3.13,5.25h-1.11l-3.11-5.12v6.24h-2.31V.18h2.03l3.98,6.6L34.68,.18h2.02l.03,10.63h-2.31Z"/><path class="cls-1" d="M48.47,4.04c0,2.37-1.78,3.84-4.62,3.84h-2.14v2.93h-2.46V.18h4.6c2.84,0,4.62,1.47,4.62,3.86Zm-2.49,0c0-1.17-.76-1.85-2.26-1.85h-2v3.69h2c1.5,0,2.26-.68,2.26-1.84Z"/><path class="cls-1" d="M56.68,8.53h-4.93l-.94,2.28h-2.52L53.02,.18h2.43l4.75,10.63h-2.58l-.94-2.28Zm-.77-1.87l-1.69-4.07-1.69,4.07h3.37Z"/><path class="cls-1" d="M71.06,.18V10.81h-2.02l-5.3-6.45v6.45h-2.43V.18h2.03l5.28,6.45V.18h2.43Z"/><path class="cls-1" d="M78.68,7.04v3.77h-2.46v-3.8L72.11,.18h2.61l2.84,4.72L80.4,.18h2.41l-4.13,6.86Z"/></g></g></g></svg>