<?xml version="1.0" encoding="UTF-8"?><svg id="Layer_2" xmlns="http://www.w3.org/2000/svg" viewBox="0 0 15.95 15.23"><defs><style>.cls-1{fill:#b3b3b3;}</style></defs><g id="Layer_1-2"><path id="Path_7847" class="cls-1" d="M0,1.77c-.01-.48,.18-.94,.54-1.27C.92,.16,1.42-.02,1.94,0c.5-.02,1,.15,1.37,.49,.36,.34,.56,.82,.54,1.32,.01,.47-.18,.92-.52,1.23-.39,.35-.89,.53-1.42,.51h-.02c-.51,.02-1-.16-1.37-.51C.18,2.71-.01,2.25,0,1.77ZM.2,15.23V4.95H3.61V15.23H.2Zm5.31,0h3.41v-5.74c-.04-.67,.25-1.31,.78-1.72,.31-.25,.7-.38,1.1-.36,1.15,0,1.72,.77,1.72,2.32v5.49h3.41v-5.89c.09-1.25-.29-2.48-1.08-3.45-.73-.79-1.77-1.22-2.84-1.18-1.26-.03-2.45,.62-3.09,1.71v.03h-.01l.02-.03v-1.46h-3.42c.02,.33,.03,1.35,.03,3.06s-.01,4.12-.03,7.21h0Z"/></g></svg>